<mxfile host="Electron" modified="2024-02-22T05:07:42.856Z" agent="Mozilla/5.0 (Macintosh; Intel Mac OS X 10_15_7) AppleWebKit/537.36 (KHTML, like Gecko) draw.io/21.6.8 Chrome/114.0.5735.289 Electron/25.5.0 Safari/537.36" etag="u1Qz9dXG2OWjjRRpxo76" version="21.6.8" type="device">
  <diagram name="Page-1" id="Urx3c39mrmA8ZJzsvJWB">
    <mxGraphModel dx="1194" dy="824" grid="1" gridSize="10" guides="1" tooltips="1" connect="1" arrows="1" fold="1" page="1" pageScale="1" pageWidth="850" pageHeight="1100" math="0" shadow="0">
      <root>
        <mxCell id="0" />
        <mxCell id="1" parent="0" />
        <mxCell id="sDD9o2OTCVlotKfecc5w-1" value="" style="rounded=1;whiteSpace=wrap;html=1;fillColor=#b0e3e6;strokeColor=#0e8088;" parent="1" vertex="1">
          <mxGeometry x="220" y="280" width="310" height="110" as="geometry" />
        </mxCell>
        <mxCell id="sDD9o2OTCVlotKfecc5w-2" value="" style="edgeStyle=orthogonalEdgeStyle;rounded=0;orthogonalLoop=1;jettySize=auto;html=1;" parent="1" source="sDD9o2OTCVlotKfecc5w-3" target="sDD9o2OTCVlotKfecc5w-7" edge="1">
          <mxGeometry relative="1" as="geometry" />
        </mxCell>
        <mxCell id="sDD9o2OTCVlotKfecc5w-3" value="Linear" style="rounded=0;whiteSpace=wrap;html=1;fillColor=#dae8fc;strokeColor=#6c8ebf;" parent="1" vertex="1">
          <mxGeometry x="250" y="295" width="40" height="80" as="geometry" />
        </mxCell>
        <mxCell id="sDD9o2OTCVlotKfecc5w-4" value="" style="edgeStyle=orthogonalEdgeStyle;rounded=0;orthogonalLoop=1;jettySize=auto;html=1;" parent="1" source="sDD9o2OTCVlotKfecc5w-5" target="sDD9o2OTCVlotKfecc5w-8" edge="1">
          <mxGeometry relative="1" as="geometry" />
        </mxCell>
        <mxCell id="sDD9o2OTCVlotKfecc5w-5" value="gelu" style="ellipse;whiteSpace=wrap;html=1;fillColor=#f8cecc;strokeColor=#b85450;" parent="1" vertex="1">
          <mxGeometry x="390" y="295" width="40" height="80" as="geometry" />
        </mxCell>
        <mxCell id="sDD9o2OTCVlotKfecc5w-6" value="" style="edgeStyle=orthogonalEdgeStyle;rounded=0;orthogonalLoop=1;jettySize=auto;html=1;" parent="1" source="sDD9o2OTCVlotKfecc5w-7" target="sDD9o2OTCVlotKfecc5w-5" edge="1">
          <mxGeometry relative="1" as="geometry" />
        </mxCell>
        <mxCell id="sDD9o2OTCVlotKfecc5w-7" value="LN" style="rounded=1;whiteSpace=wrap;html=1;fillColor=#d5e8d4;strokeColor=#82b366;" parent="1" vertex="1">
          <mxGeometry x="320" y="295" width="40" height="80" as="geometry" />
        </mxCell>
        <mxCell id="sDD9o2OTCVlotKfecc5w-8" value="Linear" style="rounded=0;whiteSpace=wrap;html=1;fillColor=#dae8fc;strokeColor=#6c8ebf;" parent="1" vertex="1">
          <mxGeometry x="460" y="295" width="40" height="80" as="geometry" />
        </mxCell>
        <mxCell id="sDD9o2OTCVlotKfecc5w-10" value="" style="endArrow=classic;html=1;rounded=0;entryX=0;entryY=0.5;entryDx=0;entryDy=0;" parent="1" target="sDD9o2OTCVlotKfecc5w-3" edge="1">
          <mxGeometry width="50" height="50" relative="1" as="geometry">
            <mxPoint x="220" y="335" as="sourcePoint" />
            <mxPoint x="150" y="575" as="targetPoint" />
          </mxGeometry>
        </mxCell>
        <mxCell id="sDD9o2OTCVlotKfecc5w-11" value="" style="endArrow=classic;html=1;rounded=0;exitX=1;exitY=0.5;exitDx=0;exitDy=0;entryX=1;entryY=0.5;entryDx=0;entryDy=0;" parent="1" source="sDD9o2OTCVlotKfecc5w-8" target="sDD9o2OTCVlotKfecc5w-1" edge="1">
          <mxGeometry width="50" height="50" relative="1" as="geometry">
            <mxPoint x="100" y="625" as="sourcePoint" />
            <mxPoint x="150" y="575" as="targetPoint" />
          </mxGeometry>
        </mxCell>
        <mxCell id="sDD9o2OTCVlotKfecc5w-12" value="" style="shape=flexArrow;endArrow=classic;html=1;rounded=0;width=7;endSize=5.02;endWidth=17;exitX=1;exitY=0.5;exitDx=0;exitDy=0;" parent="1" edge="1" source="sDD9o2OTCVlotKfecc5w-1">
          <mxGeometry width="50" height="50" relative="1" as="geometry">
            <mxPoint x="530" y="334.5" as="sourcePoint" />
            <mxPoint x="570" y="335" as="targetPoint" />
          </mxGeometry>
        </mxCell>
        <mxCell id="sDD9o2OTCVlotKfecc5w-13" value="&lt;font style=&quot;font-size: 12px;&quot;&gt;输入&lt;/font&gt;" style="text;html=1;align=center;verticalAlign=middle;resizable=0;points=[];autosize=1;strokeColor=none;fillColor=none;" parent="1" vertex="1">
          <mxGeometry x="170" y="295" width="50" height="30" as="geometry" />
        </mxCell>
        <mxCell id="XrrwFYPpd51Ketqyhi_J-1" value="&lt;font style=&quot;font-size: 12px;&quot;&gt;输出&lt;/font&gt;" style="text;html=1;align=center;verticalAlign=middle;resizable=0;points=[];autosize=1;strokeColor=none;fillColor=none;" vertex="1" parent="1">
          <mxGeometry x="530" y="295" width="50" height="30" as="geometry" />
        </mxCell>
        <mxCell id="XrrwFYPpd51Ketqyhi_J-2" value="" style="shape=flexArrow;endArrow=classic;html=1;rounded=0;width=7;endSize=5.02;endWidth=17;exitX=1;exitY=0.5;exitDx=0;exitDy=0;" edge="1" parent="1">
          <mxGeometry width="50" height="50" relative="1" as="geometry">
            <mxPoint x="180" y="334.5" as="sourcePoint" />
            <mxPoint x="220" y="334.5" as="targetPoint" />
          </mxGeometry>
        </mxCell>
      </root>
    </mxGraphModel>
  </diagram>
</mxfile>
